<svg width="16" height="12" viewBox="0 0 16 12" fill="none" xmlns="http://www.w3.org/2000/svg">
<path d="M3.10826 0C1.65263 0 0.46936 1.18383 0.46936 2.6389C0.46936 4.0951 1.65263 5.27724 3.10826 5.27724C4.56389 5.27724 5.74772 4.09453 5.74716 2.6389C5.74716 1.18383 4.56389 0 3.10826 0ZM3.10826 3.95863C2.381 3.95863 1.78853 3.36672 1.78853 2.6389C1.78853 1.91221 2.381 1.31917 3.10826 1.31917C3.83552 1.31917 4.42799 1.91164 4.42799 2.6389C4.42799 3.36672 3.83552 3.95863 3.10826 3.95863ZM12.4447 9.93617C10.2488 9.93617 8.94765 8.55298 8.94765 6.35942C8.94765 3.921 10.4757 2.73381 12.4267 2.73381C13.3207 2.73381 14.0193 2.9298 14.5062 3.14096L15.0274 1.18944C14.5882 0.945151 13.6122 0.701423 12.3278 0.701423C9.01223 0.701423 6.34581 2.76694 6.34581 6.50599C6.34581 9.62729 8.29733 12 12.0858 12C13.4033 12 14.4433 11.7394 14.8819 11.5277L14.5242 9.57731C14.021 9.78903 13.2078 9.93617 12.4447 9.93617Z" fill="#62748D"/>
</svg>
