<svg width="21" height="22" viewBox="0 0 21 22" fill="none" xmlns="http://www.w3.org/2000/svg">
<path d="M19.9994 15.7254V18.5857C20.0038 19.6791 19.0207 20.5922 17.9168 20.4925C8.38893 20.5 0.999995 13.0425 1.00746 3.57859C0.908034 2.48056 1.81655 1.50112 2.90856 1.50009H5.77454C6.23816 1.49553 6.68764 1.65939 7.03917 1.96111C8.03858 2.81891 8.68142 5.73043 8.43411 6.88786C8.24098 7.7915 7.33006 8.42371 6.71076 9.04175C8.07072 11.4288 10.051 13.4051 12.4427 14.7624C13.062 14.1443 13.6955 13.2353 14.6009 13.0425C15.7624 12.7953 18.6926 13.439 19.547 14.4454C19.8501 14.8022 20.011 15.2578 19.9994 15.7254Z" stroke="#B53C12" stroke-width="1.5" stroke-linecap="round" stroke-linejoin="round"/>
</svg>
