<svg width="17" height="16" viewBox="0 0 17 16" fill="none" xmlns="http://www.w3.org/2000/svg">
<g clip-path="url(#clip0_0_300)">
<path d="M1.75016 8.16972C1.89422 8.02231 2.05037 7.88694 2.21675 7.76463C1.72328 7.27422 1.41766 6.59535 1.41766 5.84469C1.41766 4.34975 2.62978 3.13763 4.12497 3.13763C5.15022 3.13763 6.04212 3.70781 6.50153 4.54847C6.85691 4.30591 7.24759 4.11263 7.66444 3.97672L7.68444 3.92085C7.69931 3.8796 7.69519 3.83369 7.67341 3.79575C7.65134 3.75778 7.61369 3.73113 7.57059 3.72344L6.54997 3.54013C6.48869 3.5291 6.4405 3.48116 6.42947 3.41966L6.24616 2.39903C6.23847 2.35597 6.21206 2.31803 6.17384 2.29622C6.13591 2.27416 6.09025 2.26981 6.04872 2.28494L5.07297 2.63538C5.01453 2.65669 4.94891 2.63925 4.90866 2.59156L4.23875 1.80013C4.21056 1.76656 4.1685 1.74731 4.12491 1.74731C4.08081 1.74731 4.03928 1.76656 4.01081 1.80013L3.34097 2.59156C3.30072 2.63925 3.23509 2.65669 3.17634 2.63591L2.20087 2.28522C2.15959 2.27035 2.11372 2.27441 2.0755 2.29625C2.03753 2.31828 2.01141 2.35597 2.00344 2.39906L1.82016 3.41969C1.80884 3.48119 1.76091 3.52913 1.69966 3.54016L0.679031 3.72322C0.635719 3.73116 0.598281 3.7576 0.576219 3.79553C0.554156 3.83372 0.550094 3.87935 0.564969 3.92088L0.915687 4.89663C0.936719 4.95535 0.919281 5.02072 0.871594 5.06122L0.0801562 5.73085C0.0465625 5.75906 0.0273438 5.8011 0.0273438 5.84469C0.0273438 5.88875 0.0465625 5.93028 0.0801562 5.95875L0.871562 6.62866C0.91925 6.66891 0.936687 6.73453 0.915656 6.79322L0.564937 7.76875C0.550062 7.81028 0.554156 7.85591 0.576187 7.89413C0.59825 7.93206 0.635687 7.95819 0.679 7.96616L1.69962 8.14922C1.71812 8.15256 1.73478 8.16025 1.75016 8.16972Z" fill="#777777" fill-opacity="0.5"/>
<path d="M15.1405 9.08422C14.6791 8.62222 14.065 8.311 13.3829 8.22459C13.3234 7.15678 12.8704 6.19103 12.161 5.48244C11.4 4.72075 10.3445 4.2485 9.18267 4.24878C8.09436 4.24853 7.09886 4.66306 6.35233 5.34144C5.71011 5.92415 5.24992 6.70506 5.0638 7.58647C4.8833 7.5565 4.69845 7.53956 4.50976 7.53956C3.58401 7.53931 2.74261 7.91565 2.13626 8.52275C1.52945 9.12881 1.15308 9.9705 1.15308 10.896C1.15308 11.8217 1.52945 12.6634 2.13626 13.2695C2.74261 13.8763 3.58401 14.2527 4.50976 14.2527H12.9998C13.8348 14.2527 14.594 13.9132 15.1405 13.3659C15.6879 12.8193 16.0276 12.0599 16.0273 11.2252C16.0276 10.3904 15.6879 9.63078 15.1405 9.08422ZM14.5821 12.8072C14.1758 13.2128 13.619 13.4625 12.9998 13.4628H4.50976C3.79986 13.4626 3.16048 13.1762 2.69489 12.7109C2.22958 12.2453 1.9432 11.6061 1.94295 10.896C1.9432 10.1861 2.22958 9.54669 2.69489 9.08112C3.16048 8.61606 3.79986 8.32944 4.50976 8.32915C4.77486 8.32915 5.02917 8.36915 5.26889 8.44353L5.72933 8.58581L5.77854 8.10637C5.86676 7.24494 6.27492 6.47865 6.88301 5.92619C7.49189 5.37422 8.29614 5.03862 9.18267 5.03862C10.1287 5.03862 10.9819 5.42087 11.6026 6.04106C12.2228 6.6615 12.6048 7.51469 12.605 8.46097C12.605 8.49428 12.6037 8.53328 12.6019 8.5789L12.5868 9.00372L13.0062 8.98753C13.6228 8.98959 14.1773 9.23878 14.5822 9.64284C14.9877 10.0492 15.2372 10.606 15.2377 11.2252C15.2372 11.8443 14.9877 12.4012 14.5821 12.8072Z" fill="#777777" fill-opacity="0.5"/>
</g>
<defs>
<clipPath id="clip0_0_300">
<rect width="16" height="16" fill="white" transform="translate(0.0273438)"/>
</clipPath>
</defs>
</svg>
